<svg xmlns="http://www.w3.org/2000/svg" xmlns:xlink="http://www.w3.org/1999/xlink" width="500" zoomAndPan="magnify" viewBox="0 0 375 374.999991" height="500" preserveAspectRatio="xMidYMid meet" version="1.0"><defs><clipPath id="d93efe919e"><path d="M 100 97 L 221 97 L 221 278 L 100 278 Z M 100 97 " clip-rule="nonzero"/></clipPath><clipPath id="ef89538b54"><path d="M 197.136719 91.300781 L 226.882812 108.8125 L 123.925781 283.703125 L 94.179688 266.191406 Z M 197.136719 91.300781 " clip-rule="nonzero"/></clipPath><clipPath id="1c61145b46"><path d="M 212 100.050781 L 212.015625 100.058594 C 215.957031 102.378906 218.816406 106.171875 219.964844 110.601562 C 221.109375 115.03125 220.449219 119.734375 218.128906 123.675781 L 132.675781 268.835938 C 130.355469 272.78125 126.5625 275.640625 122.132812 276.785156 C 117.707031 277.933594 113.003906 277.273438 109.058594 274.953125 L 109.042969 274.941406 C 105.101562 272.621094 102.242188 268.828125 101.097656 264.402344 C 99.949219 259.972656 100.609375 255.269531 102.929688 251.328125 L 188.382812 106.164062 C 190.707031 102.222656 194.496094 99.363281 198.925781 98.21875 C 203.355469 97.070312 208.058594 97.730469 212 100.050781 " clip-rule="nonzero"/></clipPath><clipPath id="c067a218ca"><path d="M 166 97 L 287 97 L 287 278 L 166 278 Z M 166 97 " clip-rule="nonzero"/></clipPath><clipPath id="d9c31dcb62"><path d="M 263.488281 91.300781 L 293.230469 108.8125 L 190.277344 283.703125 L 160.53125 266.191406 Z M 263.488281 91.300781 " clip-rule="nonzero"/></clipPath><clipPath id="c4946d8b31"><path d="M 278.351562 100.050781 L 278.367188 100.058594 C 282.308594 102.378906 285.167969 106.171875 286.316406 110.601562 C 287.460938 115.03125 286.800781 119.734375 284.480469 123.675781 L 199.027344 268.835938 C 196.707031 272.78125 192.914062 275.640625 188.484375 276.785156 C 184.054688 277.933594 179.351562 277.273438 175.410156 274.953125 L 175.394531 274.941406 C 171.453125 272.621094 168.59375 268.828125 167.445312 264.402344 C 166.300781 259.972656 166.960938 255.269531 169.28125 251.328125 L 254.734375 106.164062 C 257.054688 102.222656 260.847656 99.363281 265.277344 98.21875 C 269.707031 97.070312 274.410156 97.730469 278.351562 100.050781 " clip-rule="nonzero"/></clipPath></defs><g clip-path="url(#d93efe919e)"><g clip-path="url(#ef89538b54)"><g clip-path="url(#1c61145b46)"><path fill="#8ea20a" d="M 197.136719 91.300781 L 226.882812 108.8125 L 123.925781 283.703125 L 94.179688 266.191406 Z M 197.136719 91.300781 " fill-opacity="1" fill-rule="nonzero"/></g></g></g><g clip-path="url(#c067a218ca)"><g clip-path="url(#d9c31dcb62)"><g clip-path="url(#c4946d8b31)"><path fill="#8ea20a" d="M 263.488281 91.300781 L 293.230469 108.8125 L 190.277344 283.703125 L 160.53125 266.191406 Z M 263.488281 91.300781 " fill-opacity="1" fill-rule="nonzero"/></g></g></g></svg>